<svg width="41" height="40" viewBox="0 0 41 40" fill="none" xmlns="http://www.w3.org/2000/svg">
<path d="M20.5 40C17.7333 40 15.1333 39.475 12.7 38.425C10.2667 37.375 8.15 35.95 6.35 34.15C4.55 32.35 3.125 30.2333 2.075 27.8C1.025 25.3667 0.5 22.7667 0.5 20C0.5 17.2333 1.025 14.6333 2.075 12.2C3.125 9.76667 4.55 7.65 6.35 5.85C8.15 4.05 10.2667 2.625 12.7 1.575C15.1333 0.525 17.7333 0 20.5 0C23.2667 0 25.8667 0.525 28.3 1.575C30.7333 2.625 32.85 4.05 34.65 5.85C36.45 7.65 37.875 9.76667 38.925 12.2C39.975 14.6333 40.5 17.2333 40.5 20C40.5 22.7667 39.975 25.3667 38.925 27.8C37.875 30.2333 36.45 32.35 34.65 34.15C32.85 35.95 30.7333 37.375 28.3 38.425C25.8667 39.475 23.2667 40 20.5 40ZM20.5 37C25.2333 37 29.25 35.35 32.55 32.05C35.85 28.75 37.5 24.7333 37.5 20C37.5 17.9667 37.15 16.0167 36.45 14.15C35.75 12.2833 34.7667 10.5833 33.5 9.05L9.55 33C11.05 34.3 12.7417 35.2917 14.625 35.975C16.5083 36.6583 18.4667 37 20.5 37ZM7.55 30.95L31.45 7.05C29.9167 5.75 28.2167 4.75 26.35 4.05C24.4833 3.35 22.5333 3 20.5 3C15.7667 3 11.75 4.65 8.45 7.95C5.15 11.25 3.5 15.2667 3.5 20C3.5 22.0333 3.86667 23.9917 4.6 25.875C5.33333 27.7583 6.31667 29.45 7.55 30.95Z" fill="black"/>
</svg>
